<?xml version="1.0" encoding="utf-8"?>
<!-- Generator: Adobe Illustrator 23.0.3, SVG Export Plug-In . SVG Version: 6.00 Build 0)  -->
<svg version="1.1" id="Capa_1" xmlns="http://www.w3.org/2000/svg" xmlns:xlink="http://www.w3.org/1999/xlink" x="0px" y="0px"
	 viewBox="0 0 512 512" style="enable-background:new 0 0 512 512;" xml:space="preserve">
<g>
	<g>
		<path d="M437,75C388.7,26.6,324.4,0,256,0S123.3,26.6,75,75C26.6,123.3,0,187.6,0,256s26.6,132.7,75,181
			c48.4,48.4,112.6,75,181,75s132.7-26.6,181-75c48.4-48.4,75-112.6,75-181S485.4,123.3,437,75z M256,481.5
			C131.6,481.5,30.5,380.4,30.5,256S131.6,30.5,256,30.5S481.5,131.6,481.5,256S380.4,481.5,256,481.5z"/>
	</g>
</g>
<g>
	<g>
		<path d="M200.6,179.4c-25-25-65.6-25-90.5,0c-6,5.9-6,15.6,0,21.6c6,5.9,15.6,5.9,21.6,0c13.1-13.1,34.3-13.1,47.4,0
			c3,3,6.9,4.5,10.8,4.5s7.8-1.5,10.8-4.5C206.6,195,206.6,185.3,200.6,179.4z"/>
	</g>
</g>
<g>
	<g>
		<path d="M401.9,179.4c-25-25-65.6-25-90.5,0c-6,5.9-6,15.6,0,21.6c6,5.9,15.6,5.9,21.6,0c13.1-13.1,34.3-13.1,47.4,0
			c3,3,6.9,4.5,10.8,4.5S399,204,402,201C407.8,195,407.8,185.3,401.9,179.4z"/>
	</g>
</g>
<g>
	<g>
		<path d="M120.9,398.8h270.2c8.4,0,15.2-6.8,15.2-15.2c0-82.9-67.4-150.3-150.3-150.3s-150.3,67.4-150.3,150.3
			C105.7,391.9,112.5,398.8,120.9,398.8z M256,263.7c60.9,0,111.4,45.7,118.9,104.6H137.1C144.6,309.4,195.1,263.7,256,263.7z"/>
	</g>
</g>
</svg>
